<svg width="1043" height="696" viewBox="0 0 1043 696" fill="none" xmlns="http://www.w3.org/2000/svg">
<g filter="url(#filter0_d_3_346)">
<rect width="1042" height="695" fill="#22272E"/>
<path d="M1042 692H0V695H1042V692Z" fill="#2F2E41"/>
<path d="M500.126 387.667V439.667L507.126 471.667C507.126 471.667 506.126 491.667 507.126 497.667C508.126 503.667 506.126 513.667 500.126 513.667C494.126 513.667 491.126 528.667 491.126 528.667C491.126 528.667 489.126 534.667 484.126 535.667C479.126 536.667 479.126 535.667 479.126 535.667L475.126 545.667L392.126 600.667L408.126 640.667C408.126 640.667 433.126 631.667 435.126 628.667C437.126 625.667 454.126 632.667 454.126 625.667C454.126 618.667 457.126 600.667 463.126 599.667C469.126 598.667 519.126 575.667 519.126 575.667C519.126 575.667 545.126 546.667 547.126 535.667C549.126 524.667 558.126 493.667 558.126 493.667L583.126 535.667V619.667L579.126 664.667L623.126 658.667C623.126 658.667 619.126 630.667 623.126 626.667C627.126 622.667 633.126 574.667 629.126 568.667C625.126 562.667 631.126 535.667 629.126 531.667C627.126 527.667 628.126 498.667 623.126 490.667C618.126 482.667 588.126 400.667 588.126 400.667L500.126 387.667Z" fill="#575761"/>
<path d="M585.126 662.667C585.126 662.667 570.126 687.667 580.126 690.667C590.126 693.667 609.126 690.667 611.126 690.667C613.126 690.667 649.126 691.667 649.126 691.667C649.126 691.667 673.126 686.667 673.126 679.667C673.126 672.667 658.126 672.667 653.126 671.667C648.126 670.667 617.126 658.667 617.126 658.667L585.126 662.667Z" fill="black"/>
<path d="M396.718 601.795C396.718 601.795 367.816 597.967 369.038 608.336C370.26 618.704 380.564 634.947 381.359 636.782C381.898 638.025 388.214 653.76 392.234 663.788C395.141 671.139 399.507 677.824 405.07 683.44C409.001 687.369 413.286 690.519 416.096 689.302C422.519 686.52 416.557 672.755 415.488 667.77C414.418 662.784 413.108 629.569 413.108 629.569L396.718 601.795Z" fill="black"/>
<path d="M558.626 426.167L566.626 443.167C566.626 443.167 584.626 437.167 584.626 434.167C584.626 431.167 576.626 418.167 576.626 418.167L558.626 426.167Z" fill="#FFB8B8"/>
<path d="M597.626 222.167L629.626 148.167C629.626 148.167 626.626 141.167 619.626 142.167C619.626 142.167 610.126 117.667 592.126 117.667C592.126 117.667 565.126 102.667 557.126 117.667C557.126 117.667 540.126 132.667 541.126 146.667C542.126 160.667 543.126 170.667 543.126 170.667C543.126 170.667 527.126 172.667 530.126 180.667C533.126 188.667 534.126 188.667 530.126 191.667L526.126 194.667C526.126 194.667 443.126 269.667 489.126 379.667L493.126 396.667V412.667C493.126 412.667 594.126 413.667 594.126 412.667C594.126 411.667 592.126 405.667 596.126 401.667C600.126 397.667 600.126 391.667 600.126 391.667C600.126 391.667 596.126 371.667 598.126 365.667C600.126 359.667 601.126 333.667 597.126 327.667C593.126 321.667 595.126 273.667 595.126 273.667L604.126 256.667L601.126 246.667L598.126 236.667L597.626 222.167Z" fill="#484468"/>
<path opacity="0.1" d="M589.126 422.667C589.126 422.667 577.126 389.667 578.126 383.667C579.126 377.667 576.126 365.667 576.126 365.667L572.126 284.667C572.126 284.667 589.126 212.667 551.126 200.667C551.126 200.667 541.51 204.862 533.632 218.364C525.841 221.834 516.387 230.616 514.126 252.667C510.126 291.667 528.126 391.667 537.126 408.667C546.126 425.667 552.126 437.667 552.126 437.667L561.532 433.486C561.921 434.256 562.126 434.667 562.126 434.667L589.126 422.667Z" fill="black"/>
<path d="M547.126 200.667C547.126 200.667 524.126 210.667 520.126 249.667C516.126 288.667 534.126 388.667 543.126 405.667C552.126 422.667 558.126 434.667 558.126 434.667L585.126 422.667C585.126 422.667 573.126 389.667 574.126 383.667C575.126 377.667 572.126 365.667 572.126 365.667L568.126 284.667C568.126 284.667 585.126 212.667 547.126 200.667Z" fill="#484468"/>
</g>
<defs>
<filter id="filter0_d_3_346" x="-4" y="0" width="1050" height="703" filterUnits="userSpaceOnUse" color-interpolation-filters="sRGB">
<feFlood flood-opacity="0" result="BackgroundImageFix"/>
<feColorMatrix in="SourceAlpha" type="matrix" values="0 0 0 0 0 0 0 0 0 0 0 0 0 0 0 0 0 0 127 0" result="hardAlpha"/>
<feOffset dy="4"/>
<feGaussianBlur stdDeviation="2"/>
<feComposite in2="hardAlpha" operator="out"/>
<feColorMatrix type="matrix" values="0 0 0 0 0 0 0 0 0 0 0 0 0 0 0 0 0 0 0.25 0"/>
<feBlend mode="normal" in2="BackgroundImageFix" result="effect1_dropShadow_3_346"/>
<feBlend mode="normal" in="SourceGraphic" in2="effect1_dropShadow_3_346" result="shape"/>
</filter>
</defs>
</svg>
