<svg width="1043" height="710" viewBox="0 0 1043 710" fill="none" xmlns="http://www.w3.org/2000/svg">
<rect width="1043" height="710" fill="#E5E5E5"/>
<path d="M1042 706H0V709H1042V706Z" fill="#2F2E41"/>
<path d="M500.126 401.667V453.667L507.126 485.667C507.126 485.667 506.126 505.667 507.126 511.667C508.126 517.667 506.126 527.667 500.126 527.667C494.126 527.667 491.126 542.667 491.126 542.667C491.126 542.667 489.126 548.667 484.126 549.667C479.126 550.667 479.126 549.667 479.126 549.667L475.126 559.667L392.126 614.667L408.126 654.667C408.126 654.667 433.126 645.667 435.126 642.667C437.126 639.667 454.126 646.667 454.126 639.667C454.126 632.667 457.126 614.667 463.126 613.667C469.126 612.667 519.126 589.667 519.126 589.667C519.126 589.667 545.126 560.667 547.126 549.667C549.126 538.667 558.126 507.667 558.126 507.667L583.126 549.667V633.667L579.126 678.667L623.126 672.667C623.126 672.667 619.126 644.667 623.126 640.667C627.126 636.667 633.126 588.667 629.126 582.667C625.126 576.667 631.126 549.667 629.126 545.667C627.126 541.667 628.126 512.667 623.126 504.667C618.126 496.667 588.126 414.667 588.126 414.667L500.126 401.667Z" fill="#2F2E41"/>
<path d="M585.126 676.667C585.126 676.667 570.126 701.667 580.126 704.667C590.126 707.667 609.126 704.667 611.126 704.667C613.126 704.667 649.126 705.667 649.126 705.667C649.126 705.667 673.126 700.667 673.126 693.667C673.126 686.667 658.126 686.667 653.126 685.667C648.126 684.667 617.126 672.667 617.126 672.667L585.126 676.667Z" fill="#2F2E41"/>
<path d="M396.718 615.795C396.718 615.795 367.816 611.967 369.038 622.336C370.26 632.704 380.564 648.947 381.359 650.782C381.898 652.025 388.214 667.76 392.234 677.788C395.141 685.139 399.507 691.824 405.07 697.44C409.001 701.369 413.286 704.519 416.096 703.302C422.519 700.52 416.557 686.755 415.488 681.77C414.418 676.784 413.108 643.569 413.108 643.569L396.718 615.795Z" fill="#2F2E41"/>
<path d="M558.626 440.167L566.626 457.167C566.626 457.167 584.626 451.167 584.626 448.167C584.626 445.167 576.626 432.167 576.626 432.167L558.626 440.167Z" fill="#FFB8B8"/>
<path d="M597.626 236.167L629.626 162.167C629.626 162.167 626.626 155.167 619.626 156.167C619.626 156.167 610.126 131.667 592.126 131.667C592.126 131.667 565.126 116.667 557.126 131.667C557.126 131.667 540.126 146.667 541.126 160.667C542.126 174.667 543.126 184.667 543.126 184.667C543.126 184.667 527.126 186.667 530.126 194.667C533.126 202.667 534.126 202.667 530.126 205.667L526.126 208.667C526.126 208.667 443.126 283.667 489.126 393.667L493.126 410.667V426.667C493.126 426.667 594.126 427.667 594.126 426.667C594.126 425.667 592.126 419.667 596.126 415.667C600.126 411.667 600.126 405.667 600.126 405.667C600.126 405.667 596.126 385.667 598.126 379.667C600.126 373.667 601.126 347.667 597.126 341.667C593.126 335.667 595.126 287.667 595.126 287.667L604.126 270.667L601.126 260.667L598.126 250.667L597.626 236.167Z" fill="#8985A8"/>
<path opacity="0.1" d="M589.126 436.667C589.126 436.667 577.126 403.667 578.126 397.667C579.126 391.667 576.126 379.667 576.126 379.667L572.126 298.667C572.126 298.667 589.126 226.667 551.126 214.667C551.126 214.667 541.51 218.862 533.632 232.364C525.841 235.834 516.387 244.616 514.126 266.667C510.126 305.667 528.126 405.667 537.126 422.667C546.126 439.667 552.126 451.667 552.126 451.667L561.532 447.486C561.921 448.256 562.126 448.667 562.126 448.667L589.126 436.667Z" fill="black"/>
<path d="M547.126 214.667C547.126 214.667 524.126 224.667 520.126 263.667C516.126 302.667 534.126 402.667 543.126 419.667C552.126 436.667 558.126 448.667 558.126 448.667L585.126 436.667C585.126 436.667 573.126 403.667 574.126 397.667C575.126 391.667 572.126 379.667 572.126 379.667L568.126 298.667C568.126 298.667 585.126 226.667 547.126 214.667Z" fill="#8985A8"/>
</svg>
